#define 26139_984ae4d38edbcd8a319c564e4c59d302a63d0b9f45e26c1d218d1e3c3d02ef9b_width 48
#define 26139_984ae4d38edbcd8a319c564e4c59d302a63d0b9f45e26c1d218d1e3c3d02ef9b_height 79
static char 26139_984ae4d38edbcd8a319c564e4c59d302a63d0b9f45e26c1d218d1e3c3d02ef9b_bits[] = {
  0x00, 0x00, 0x00, 0x01, 0x00, 0x00, 0x00, 0x00, 0xE0, 0x07, 0x00, 0x00, 
  0x00, 0x00, 0xF0, 0x07, 0x00, 0x00, 0x00, 0x00, 0xF8, 0x1F, 0x00, 0x00, 
  0x00, 0x00, 0xFC, 0x1F, 0x00, 0x00, 0x00, 0x00, 0xFC, 0x1F, 0x00, 0x00, 
  0x00, 0x00, 0xFC, 0x3F, 0x00, 0x00, 0x00, 0x00, 0xFC, 0x1F, 0x00, 0x00, 
  0x00, 0x00, 0xFC, 0x1F, 0x00, 0x00, 0x00, 0x00, 0xF8, 0x1F, 0x00, 0x00, 
  0x00, 0x1C, 0xF0, 0x07, 0x38, 0x00, 0x00, 0x7C, 0xE2, 0x0F, 0x3E, 0x00, 
  0x00, 0xFC, 0xFF, 0xFF, 0x3F, 0x00, 0x00, 0xFC, 0xFF, 0xFF, 0x3F, 0x00, 
  0x00, 0xFC, 0xFF, 0xFF, 0x3F, 0x00, 0x00, 0xF8, 0xFF, 0xFF, 0x3F, 0x00, 
  0x00, 0xF8, 0xFF, 0xFF, 0x1F, 0x00, 0x00, 0xF0, 0xFF, 0xFF, 0x1F, 0x00, 
  0x00, 0xF0, 0xFF, 0xFF, 0x0F, 0x00, 0x00, 0xE0, 0xFF, 0xFF, 0x0F, 0x00, 
  0x00, 0xE0, 0xFF, 0xFF, 0x0F, 0x00, 0x00, 0xFC, 0xFF, 0xFF, 0x3F, 0x00, 
  0x00, 0xFE, 0xFF, 0xFF, 0x3F, 0x00, 0x00, 0xFC, 0xFF, 0xFF, 0x3F, 0x00, 
  0x00, 0xFE, 0xFF, 0xFF, 0x3F, 0x00, 0x00, 0xFC, 0xFF, 0xFF, 0x3F, 0x00, 
  0x00, 0xD4, 0x97, 0x97, 0x3B, 0x00, 0x00, 0x00, 0x00, 0x00, 0x00, 0x00, 
  0x00, 0x00, 0x00, 0x00, 0x00, 0x00, 0x00, 0x00, 0x99, 0x99, 0x00, 0x00, 
  0x00, 0x00, 0xFF, 0xFF, 0x01, 0x00, 0x00, 0x80, 0xFF, 0xFF, 0x00, 0x00, 
  0x00, 0x00, 0xFF, 0xFF, 0x01, 0x00, 0x00, 0x80, 0xFF, 0xFF, 0x01, 0x00, 
  0x00, 0x80, 0xFF, 0xFF, 0x00, 0x00, 0x00, 0x80, 0xFF, 0xFF, 0x01, 0x00, 
  0x00, 0x80, 0xFF, 0xFF, 0x01, 0x00, 0x00, 0x80, 0xFF, 0xFF, 0x01, 0x00, 
  0x00, 0x80, 0xFF, 0xFF, 0x01, 0x00, 0x00, 0xC0, 0xFF, 0xFF, 0x01, 0x00, 
  0x00, 0x80, 0xFF, 0xFF, 0x03, 0x00, 0x00, 0xC0, 0xFF, 0xFF, 0x01, 0x00, 
  0x00, 0xC0, 0xFF, 0xFF, 0x01, 0x00, 0x00, 0xC0, 0xFF, 0xFF, 0x03, 0x00, 
  0x00, 0xC0, 0xFF, 0xFF, 0x03, 0x00, 0x00, 0xC0, 0xFF, 0xFF, 0x03, 0x00, 
  0x00, 0xE0, 0xFF, 0xFF, 0x03, 0x00, 0x00, 0xE0, 0xFF, 0xFF, 0x07, 0x00, 
  0x00, 0xE0, 0xFF, 0xFF, 0x07, 0x00, 0x00, 0xE0, 0xFF, 0xFF, 0x07, 0x00, 
  0x00, 0xF0, 0xFF, 0xFF, 0x07, 0x00, 0x00, 0xF0, 0xFF, 0xFF, 0x0F, 0x00, 
  0x00, 0xF0, 0xFF, 0xFF, 0x0F, 0x00, 0x00, 0xF8, 0xFF, 0xFF, 0x1F, 0x00, 
  0x00, 0xF8, 0xFF, 0xFF, 0x1F, 0x00, 0x00, 0xFC, 0xFF, 0xFF, 0x1F, 0x00, 
  0x00, 0xFC, 0xFF, 0xFF, 0x3F, 0x00, 0x00, 0xFE, 0xFF, 0xFF, 0x3F, 0x00, 
  0x00, 0xFE, 0xFF, 0xFF, 0x7F, 0x00, 0x00, 0xFF, 0xFF, 0xFF, 0xFF, 0x00, 
  0x80, 0xFF, 0xFF, 0xFF, 0xFF, 0x00, 0x80, 0xFF, 0xFF, 0xFF, 0xFF, 0x01, 
  0x80, 0xFF, 0xFF, 0xFF, 0xFF, 0x01, 0x80, 0xEF, 0xFB, 0xBE, 0xEF, 0x01, 
  0x00, 0x00, 0x00, 0x00, 0x00, 0x00, 0x00, 0x00, 0x00, 0x00, 0x00, 0x00, 
  0x10, 0x14, 0x45, 0x51, 0x14, 0x08, 0xFC, 0xFF, 0xFF, 0xFF, 0xFF, 0x3F, 
  0xFE, 0xFF, 0xFF, 0xFF, 0xFF, 0x3F, 0xFE, 0xFF, 0xFF, 0xFF, 0xFF, 0x7F, 
  0xFE, 0xFF, 0xFF, 0xFF, 0xFF, 0x7F, 0xFE, 0xFF, 0xFF, 0xFF, 0xFF, 0x7F, 
  0xFE, 0xFF, 0xFF, 0xFF, 0xFF, 0x7F, 0xFE, 0xFF, 0xFF, 0xFF, 0xFF, 0x7F, 
  0xFE, 0xFF, 0xFF, 0xFF, 0xFF, 0x7F, 0xFE, 0xFF, 0xFF, 0xFF, 0xFF, 0x7F, 
  0xFE, 0xFF, 0xFF, 0xFF, 0xFF, 0x3F, 0xFC, 0xFF, 0xFF, 0xFF, 0xFF, 0x3F, 
  0x00, 0x00, 0x10, 0x04, 0x41, 0x00, };
